# xmcd
#
# Track frame offsets: 
#        150
#        14850
#        32475
#        47925
#        62775
#        77850
#        93900
#        103575
#        121800
#        141375
#        157050
#
# Disc length: 2397 seconds
#
# Revision: 0
# Processed by: cddbd v1.5.2PL0 Copyright (c) Steve Scherf et al.
# Submitted via: ExactAudioCopy v1.0b3
#
DISCID=97095b0b
DTITLE=One Morning Left - Metalcore Superstars
DYEAR=2016
DGENRE=Metalcore
TTITLE0=OML_KVLT
TTITLE1=Heavy Metal Finland
TTITLE2=¡Derailed!
TTITLE3=You’re dead! Let’s disco!
TTITLE4=The Recipe
TTITLE5=Kings and Queens
TTITLE6=Fast and Furious 6.66
TTITLE7=Devil’s Nest
TTITLE8=Metalcore Superstars
TTITLE9=Eternity
TTITLE10=Sticks and Stones
EXTD=
EXTT0=
EXTT1=
EXTT2=
EXTT3=
EXTT4=
EXTT5=
EXTT6=
EXTT7=
EXTT8=
EXTT9=
EXTT10=
PLAYORDER=
